<svg width="64" height="64" xmlns="http://www.w3.org/2000/svg" xmlns:xlink="http://www.w3.org/1999/xlink"><defs><rect id="a" width="43" height="43" rx="21.5"/><path id="c" d="M0 0h24v26H0z"/><rect id="e" width="43" height="43" rx="21.5"/></defs><g fill="none" fill-rule="evenodd"><mask id="b" fill="#fff"><use xlink:href="#a"/></mask><use fill="#D11242" xlink:href="#a"/><path fill="#FFF" mask="url(#b)" d="M-2 33h45v4H-2zM-2 6h45v4H-2zM-2 15h45v4H-2zM-2 24h45v4H-2z"/><g mask="url(#b)"><g transform="translate(0 -2)"><mask id="d" fill="#fff"><use xlink:href="#c"/></mask><use fill="#2381E8" xlink:href="#c"/><g opacity=".7" mask="url(#d)" fill="#FFF"><path d="M20 22h2v2h-2zM16 22h2v2h-2zM12 22h2v2h-2zM8 22h2v2H8zM4 22h2v2H4zM18 20h2v2h-2zM14 20h2v2h-2zM10 20h2v2h-2zM6 20h2v2H6zM2 20h2v2H2zM24 18h2v2h-2zM20 18h2v2h-2zM16 18h2v2h-2zM12 18h2v2h-2zM8 18h2v2H8zM4 18h2v2H4zM18 16h2v2h-2zM14 16h2v2h-2zM10 16h2v2h-2zM6 16h2v2H6zM2 16h2v2H2zM24 14h2v2h-2zM20 14h2v2h-2zM16 14h2v2h-2zM12 14h2v2h-2zM8 14h2v2H8zM4 14h2v2H4zM18 12h2v2h-2zM14 12h2v2h-2zM10 12h2v2h-2zM6 12h2v2H6zM2 12h2v2H2zM20 10h2v2h-2zM16 10h2v2h-2zM12 10h2v2h-2zM8 10h2v2H8zM4 10h2v2H4zM0 10h2v2H0zM18 8h2v2h-2zM14 8h2v2h-2zM10 8h2v2h-2zM6 8h2v2H6zM2 8h2v2H2zM20 6h2v2h-2zM16 6h2v2h-2zM12 6h2v2h-2zM8 6h2v2H8zM4 6h2v2H4zM0 6h2v2H0zM18 4h2v2h-2zM14 4h2v2h-2zM10 4h2v2h-2zM6 4h2v2H6zM2 4h2v2H2zM12 2h2v2h-2zM8 2h2v2H8zM4 2h2v2H4zM0 2h2v2H0z"/></g></g></g><g transform="translate(21 21)"><mask id="f" fill="#fff"><use xlink:href="#e"/></mask><use fill="#D11242" xlink:href="#e"/><g mask="url(#f)"><path fill="#D52B1E" d="M-7.341 0h57.683v43H-7.341z"/><path fill="#FFF" d="M10 0h23v43H10z"/><path d="M21.5 11l-1.66 3.165c-.188.344-.525.312-.863.12l-1.2-.637.894 4.861c.189.888-.415.888-.713.504l-2.097-2.4-.34 1.22a.406.406 0 0 1-.471.287l-2.65-.57.695 2.589c.15.576.266.814-.15.966L12 21.56l4.563 3.79c.181.144.272.402.208.636l-.4 1.34c1.572-.185 2.98-.464 4.552-.636.139-.015.371.22.37.384l-.208 4.91h.764l-.12-4.9c-.001-.164.21-.409.348-.394 1.572.172 2.98.45 4.551.636l-.399-1.34a.619.619 0 0 1 .208-.635L31 21.56l-.945-.455c-.416-.152-.3-.39-.15-.966l.696-2.589-2.651.57a.406.406 0 0 1-.47-.288l-.341-1.219-2.097 2.4c-.298.384-.902.384-.713-.504l.895-4.86-1.201.636c-.338.192-.675.224-.863-.12" fill="#D52B1E"/></g></g></g></svg>