<svg width="64" height="64" xmlns="http://www.w3.org/2000/svg" xmlns:xlink="http://www.w3.org/1999/xlink"><defs><rect id="a" width="43" height="43" rx="21.5"/><rect id="c" width="43" height="43" rx="21.5"/><path id="e" d="M0 0h24v26H0z"/><path d="M21 42.5C21 30.626 30.623 21 42.5 21 54.374 21 64 30.623 64 42.5 64 54.374 54.377 64 42.5 64 30.626 64 21 54.377 21 42.5zm1 0C22 53.824 31.178 63 42.5 63 53.824 63 63 53.822 63 42.5 63 31.176 53.822 22 42.5 22 31.176 22 22 31.178 22 42.5z" id="g"/></defs><g fill="none" fill-rule="evenodd"><mask id="b" fill="#fff"><use xlink:href="#a"/></mask><use fill="#1836CE" xlink:href="#a"/><g mask="url(#b)"><path fill="#1836CE" d="M0 .196h43v42.659H0z"/><path fill="#FFF" d="M0 42.855h4.807L43 4.965V.196h-4.807L0 38.086z"/><path fill="#FFF" d="M43 42.855h-4.807L0 4.965V.196h4.807L43 38.086z"/><path fill="#CE1126" d="M4.195 3.342v3.18l11.129 11.04h3.204zM23.364 17.562h3.205l14.333-14.22h-3.204zM1.049 40.757h3.205l14.333-14.22h-3.205z"/><path fill="#FFF" d="M0 17h43v10H0z"/><path fill="#FFF" d="M17 0h9v43h-9z"/><path fill="#CE1126" d="M18 0h7v43h-7z"/><path fill="#CE1126" d="M-1.049 18H44.05v8H-1.049zM43 42.855v-3.18l-11.128-11.04h-3.205z"/></g><g transform="translate(21 21)"><mask id="d" fill="#fff"><use xlink:href="#c"/></mask><use fill="#D11242" xlink:href="#c"/><path fill="#FFF" mask="url(#d)" d="M-2 33h45v4H-2zM-2 6h45v4H-2zM-2 15h45v4H-2zM-2 24h45v4H-2z"/><g mask="url(#d)"><g transform="translate(0 -2)"><mask id="f" fill="#fff"><use xlink:href="#e"/></mask><use fill="#2381E8" xlink:href="#e"/><g opacity=".7" mask="url(#f)" fill="#FFF"><path d="M20 22h2v2h-2zM16 22h2v2h-2zM12 22h2v2h-2zM8 22h2v2H8zM4 22h2v2H4zM18 20h2v2h-2zM14 20h2v2h-2zM10 20h2v2h-2zM6 20h2v2H6zM2 20h2v2H2zM24 18h2v2h-2zM20 18h2v2h-2zM16 18h2v2h-2zM12 18h2v2h-2zM8 18h2v2H8zM4 18h2v2H4zM18 16h2v2h-2zM14 16h2v2h-2zM10 16h2v2h-2zM6 16h2v2H6zM2 16h2v2H2zM24 14h2v2h-2zM20 14h2v2h-2zM16 14h2v2h-2zM12 14h2v2h-2zM8 14h2v2H8zM4 14h2v2H4zM18 12h2v2h-2zM14 12h2v2h-2zM10 12h2v2h-2zM6 12h2v2H6zM2 12h2v2H2zM20 10h2v2h-2zM16 10h2v2h-2zM12 10h2v2h-2zM8 10h2v2H8zM4 10h2v2H4zM0 10h2v2H0zM18 8h2v2h-2zM14 8h2v2h-2zM10 8h2v2h-2zM6 8h2v2H6zM2 8h2v2H2zM20 6h2v2h-2zM16 6h2v2h-2zM12 6h2v2h-2zM8 6h2v2H8zM4 6h2v2H4zM0 6h2v2H0zM18 4h2v2h-2zM14 4h2v2h-2zM10 4h2v2h-2zM6 4h2v2H6zM2 4h2v2H2zM12 2h2v2h-2zM8 2h2v2H8zM4 2h2v2H4zM0 2h2v2H0z"/></g></g></g></g><use fill="#000" opacity=".15" xlink:href="#g"/></g></svg>