<svg width="64" height="64" xmlns="http://www.w3.org/2000/svg" xmlns:xlink="http://www.w3.org/1999/xlink"><defs><rect id="a" width="43" height="43" rx="21.5"/><path id="c" d="M0 0h24v26H0z"/><rect id="e" width="43" height="43" rx="21.5"/></defs><g fill="none" fill-rule="evenodd"><mask id="b" fill="#fff"><use xlink:href="#a"/></mask><use fill="#D11242" xlink:href="#a"/><path fill="#FFF" mask="url(#b)" d="M-2 33h45v4H-2zM-2 6h45v4H-2zM-2 15h45v4H-2zM-2 24h45v4H-2z"/><g mask="url(#b)"><g transform="translate(0 -2)"><mask id="d" fill="#fff"><use xlink:href="#c"/></mask><use fill="#2381E8" xlink:href="#c"/><g opacity=".7" mask="url(#d)" fill="#FFF"><path d="M20 22h2v2h-2zM16 22h2v2h-2zM12 22h2v2h-2zM8 22h2v2H8zM4 22h2v2H4zM18 20h2v2h-2zM14 20h2v2h-2zM10 20h2v2h-2zM6 20h2v2H6zM2 20h2v2H2zM24 18h2v2h-2zM20 18h2v2h-2zM16 18h2v2h-2zM12 18h2v2h-2zM8 18h2v2H8zM4 18h2v2H4zM18 16h2v2h-2zM14 16h2v2h-2zM10 16h2v2h-2zM6 16h2v2H6zM2 16h2v2H2zM24 14h2v2h-2zM20 14h2v2h-2zM16 14h2v2h-2zM12 14h2v2h-2zM8 14h2v2H8zM4 14h2v2H4zM18 12h2v2h-2zM14 12h2v2h-2zM10 12h2v2h-2zM6 12h2v2H6zM2 12h2v2H2zM20 10h2v2h-2zM16 10h2v2h-2zM12 10h2v2h-2zM8 10h2v2H8zM4 10h2v2H4zM0 10h2v2H0zM18 8h2v2h-2zM14 8h2v2h-2zM10 8h2v2h-2zM6 8h2v2H6zM2 8h2v2H2zM20 6h2v2h-2zM16 6h2v2h-2zM12 6h2v2h-2zM8 6h2v2H8zM4 6h2v2H4zM0 6h2v2H0zM18 4h2v2h-2zM14 4h2v2h-2zM10 4h2v2h-2zM6 4h2v2H6zM2 4h2v2H2zM12 2h2v2h-2zM8 2h2v2H8zM4 2h2v2H4zM0 2h2v2H0z"/></g></g></g><g transform="translate(21 21)"><mask id="f" fill="#fff"><use xlink:href="#e"/></mask><use fill="#FFF" xlink:href="#e"/><path d="M21.501 32C27.295 32 32 27.298 32 21.5 32 15.701 27.295 11 21.501 11 15.702 11 11 15.701 11 21.5 11 27.298 15.702 32 21.501 32" fill="#BC002D" mask="url(#f)"/></g><path d="M21 42.5C21 30.626 30.623 21 42.5 21 54.374 21 64 30.623 64 42.5 64 54.374 54.377 64 42.5 64 30.626 64 21 54.377 21 42.5zm1 0C22 53.824 31.178 63 42.5 63 53.824 63 63 53.822 63 42.5 63 31.176 53.822 22 42.5 22 31.176 22 22 31.178 22 42.5z" fill="#000" opacity=".15"/></g></svg>