<svg width="64" height="64" xmlns="http://www.w3.org/2000/svg" xmlns:xlink="http://www.w3.org/1999/xlink"><defs><rect id="a" width="43" height="43" rx="21.5"/><path id="c" d="M0 .096h26v20H0z"/><rect id="e" width="43" height="43" rx="21.5"/><path id="g" d="M0 0h24v26H0z"/></defs><g fill="none" fill-rule="evenodd"><mask id="b" fill="#fff"><use xlink:href="#a"/></mask><use fill="#1836CE" xlink:href="#a"/><g mask="url(#b)"><g fill="#FFF"><path d="M11.8 25.13l-1 3.116-3.05-1.16 1.805 2.727-2.805 1.671 3.25.284-.448 3.243 2.248-2.373 2.247 2.373-.447-3.243 3.25-.284-2.806-1.67 1.805-2.727-3.05 1.159zM28.21 30.745l-.426 1.33-1.301-.495.77 1.164-1.197.713 1.386.12-.19 1.384.958-1.012.96 1.012-.192-1.383 1.387-.121-1.197-.713.77-1.164-1.302.495zM30.833 10.875l-.53 1.654-1.619-.615.958 1.447-1.489.887 1.725.15-.237 1.72 1.192-1.258 1.193 1.259-.238-1.72 1.725-.151-1.489-.887.958-1.447-1.619.615zM22.418 22.41l-.53 1.654-1.62-.615.959 1.447-1.489.887 1.725.15-.238 1.721 1.193-1.26 1.192 1.26-.237-1.72 1.724-.151-1.488-.887.958-1.447-1.62.615zM34.93 17.895l-.53 1.654-1.62-.615.959 1.447-1.489.886 1.725.15-.238 1.722 1.193-1.26 1.192 1.26-.237-1.721 1.724-.15-1.488-.887.957-1.447-1.618.615zM32.223 25.17l-.487 1.198-1.288.095.986.836-.308 1.258 1.097-.683 1.098.683-.308-1.258.986-.836-1.288-.095z"/></g><g><mask id="d" fill="#fff"><use xlink:href="#c"/></mask><use fill="#1836CE" xlink:href="#c"/><path fill="#FFF" mask="url(#d)" d="M0 20.905h2.931L26.22 2.422V.096h-2.932L0 18.578z"/><path fill="#FFF" mask="url(#d)" d="M26.22 20.905h-2.932L0 2.422V.096h2.931L26.22 18.578z"/><path fill="#FFF" mask="url(#d)" d="M0 7h26v7H0z"/><path fill="#CE1126" mask="url(#d)" d="M0 20.905h1.954l8.74-6.937H8.74zM15.525 7.032h1.955L26.22.096h-1.955z"/><path fill="#FFF" mask="url(#d)" d="M10 0h7v20.976h-7z"/><path fill="#CE1126" mask="url(#d)" d="M11 0h5v21h-5z"/><path fill="#CE1126" mask="url(#d)" d="M0 8h26.22v5H0zM26.22 20.905v-1.551l-6.786-5.386H17.48zM0 .096v1.55l6.786 5.386H8.74z"/></g></g><g transform="translate(21 21)"><mask id="f" fill="#fff"><use xlink:href="#e"/></mask><use fill="#D11242" xlink:href="#e"/><path fill="#FFF" mask="url(#f)" d="M-2 33h45v4H-2zM-2 6h45v4H-2zM-2 15h45v4H-2zM-2 24h45v4H-2z"/><g mask="url(#f)"><g transform="translate(0 -2)"><mask id="h" fill="#fff"><use xlink:href="#g"/></mask><use fill="#2381E8" xlink:href="#g"/><g opacity=".7" mask="url(#h)" fill="#FFF"><path d="M20 22h2v2h-2zM16 22h2v2h-2zM12 22h2v2h-2zM8 22h2v2H8zM4 22h2v2H4zM18 20h2v2h-2zM14 20h2v2h-2zM10 20h2v2h-2zM6 20h2v2H6zM2 20h2v2H2zM24 18h2v2h-2zM20 18h2v2h-2zM16 18h2v2h-2zM12 18h2v2h-2zM8 18h2v2H8zM4 18h2v2H4zM18 16h2v2h-2zM14 16h2v2h-2zM10 16h2v2h-2zM6 16h2v2H6zM2 16h2v2H2zM24 14h2v2h-2zM20 14h2v2h-2zM16 14h2v2h-2zM12 14h2v2h-2zM8 14h2v2H8zM4 14h2v2H4zM18 12h2v2h-2zM14 12h2v2h-2zM10 12h2v2h-2zM6 12h2v2H6zM2 12h2v2H2zM20 10h2v2h-2zM16 10h2v2h-2zM12 10h2v2h-2zM8 10h2v2H8zM4 10h2v2H4zM0 10h2v2H0zM18 8h2v2h-2zM14 8h2v2h-2zM10 8h2v2h-2zM6 8h2v2H6zM2 8h2v2H2zM20 6h2v2h-2zM16 6h2v2h-2zM12 6h2v2h-2zM8 6h2v2H8zM4 6h2v2H4zM0 6h2v2H0zM18 4h2v2h-2zM14 4h2v2h-2zM10 4h2v2h-2zM6 4h2v2H6zM2 4h2v2H2zM12 2h2v2h-2zM8 2h2v2H8zM4 2h2v2H4zM0 2h2v2H0z"/></g></g></g></g></g></svg>