<?xml version="1.0" standalone="no"?><svg xmlns="http://www.w3.org/2000/svg" viewBox="0 0 1440 320"><path fill="#273036" fill-opacity="1" d="M0,96L34.3,128C68.6,160,137,224,206,218.7C274.3,213,343,139,411,106.7C480,75,549,85,617,117.3C685.7,149,754,203,823,197.3C891.4,192,960,128,1029,128C1097.1,128,1166,192,1234,192C1302.9,192,1371,128,1406,96L1440,64L1440,320L1405.7,320C1371.4,320,1303,320,1234,320C1165.7,320,1097,320,1029,320C960,320,891,320,823,320C754.3,320,686,320,617,320C548.6,320,480,320,411,320C342.9,320,274,320,206,320C137.1,320,69,320,34,320L0,320Z"></path></svg>